{"glyphs":{":":{"x_min":0,"x_max":202,"ha":202,"o":"m 184 515 l 184 354 l 35 354 l 35 515 z m 184 161 l 184 0 l 35 0 l 35 161 z"},"$":{"x_min":0,"x_max":547,"ha":547,"o":"m 498 560 l 300 560 l 300 593 q 300 645 293 661 q 287 677 264 677 q 246 677 237 663 q 228 649 228 622 q 228 575 247 557 q 265 538 353 484 q 428 439 456 415 q 483 391 502 346 q 521 302 521 236 q 521 131 470 71 q 419 11 317 -3 l 317 -78 l 227 -78 l 227 -1 q 147 7 88 60 q 29 113 29 245 l 29 283 l 227 283 l 227 235 q 227 155 233 136 q 239 117 262 117 q 282 117 292 130 q 302 144 302 170 q 302 236 292 265 q 283 293 229 327 q 139 384 106 410 q 74 437 50 485 q 26 534 26 595 q 26 683 76 733 q 126 784 227 795 l 227 858 l 317 858 l 317 795 q 409 784 454 734 q 500 685 500 597 q 500 585 498 560 z"},"?":{"x_min":0,"x_max":525,"ha":525,"o":"m 238 536 l 41 536 q 42 640 59 688 q 75 735 131 771 q 186 807 272 807 q 334 807 380 788 q 427 768 454 733 q 481 698 494 658 q 507 617 507 531 l 507 434 q 507 368 495 328 q 482 288 441 258 q 400 228 345 228 q 273 228 238 284 l 238 199 l 54 199 l 54 416 l 234 416 q 235 371 266 371 q 291 371 297 391 q 304 411 304 488 l 304 619 q 304 663 298 677 q 292 692 273 692 q 251 692 245 673 q 238 653 238 583 z m 238 158 l 238 0 l 54 0 l 54 158 z"},"<":{"x_min":0,"x_max":533,"ha":533,"o":"m 501 158 l 32 354 l 32 453 l 501 649 l 501 521 l 211 404 l 501 288 z"},"'":{"x_min":0,"x_max":185,"ha":185,"o":"m 43 536 l 18 669 l 18 791 l 167 791 l 167 669 l 145 536 z"},"=":{"x_min":0,"x_max":533,"ha":533,"o":"m 32 548 l 501 548 l 501 429 l 32 429 z m 32 361 l 501 361 l 501 242 l 32 242 z"},"a":{"x_min":0,"x_max":504,"ha":504,"o":"m 211 397 l 26 397 l 26 440 q 26 516 44 556 q 61 597 113 628 q 166 660 249 660 q 349 660 400 624 q 451 589 461 537 q 471 486 471 325 l 471 0 l 279 0 l 279 58 q 261 23 233 6 q 204 -12 165 -12 q 113 -12 70 17 q 26 46 26 145 l 26 198 q 26 271 49 297 q 72 323 163 358 q 260 396 267 410 q 274 423 274 463 q 274 514 266 530 q 259 545 241 545 q 221 545 216 532 q 211 519 211 465 z m 274 308 q 227 273 219 250 q 211 227 211 183 q 211 132 218 118 q 225 103 244 103 q 263 103 268 115 q 274 126 274 175 z"},"L":{"x_min":0,"x_max":380,"ha":380,"o":"m 247 791 l 247 158 l 372 158 l 372 0 l 41 0 l 41 791 z"},"3":{"x_min":0,"x_max":530,"ha":530,"o":"m 406 448 q 451 433 473 398 q 495 364 495 237 q 495 143 473 91 q 452 39 399 11 q 346 -16 264 -16 q 170 -16 116 16 q 63 47 46 93 q 29 139 29 251 l 29 314 l 227 314 l 227 186 q 227 134 233 120 q 239 106 260 106 q 283 106 290 124 q 297 142 297 216 l 297 271 q 297 316 287 337 q 277 358 257 365 q 237 371 179 372 l 179 487 q 250 487 266 492 q 283 498 290 516 q 297 534 297 572 l 297 616 q 297 658 289 671 q 280 684 262 684 q 242 684 234 670 q 227 656 227 611 l 227 546 l 29 546 l 29 613 q 29 727 81 766 q 133 806 246 806 q 387 806 437 751 q 487 696 487 598 q 487 531 469 502 q 451 472 406 448 z"},";":{"x_min":0,"x_max":202,"ha":202,"o":"m 184 515 l 184 354 l 35 354 l 35 515 z m 176 155 l 176 84 q 176 28 163 -7 q 149 -43 117 -68 q 84 -93 43 -101 l 43 -44 q 73 -28 77 0 l 43 0 l 43 155 z"},"J":{"x_min":0,"x_max":331,"ha":331,"o":"m 292 791 l 292 262 q 292 144 290 110 q 288 76 268 48 q 248 21 214 10 q 180 0 112 0 l 9 0 l 9 138 q 27 137 36 137 q 58 137 70 147 q 83 158 85 174 q 87 189 87 234 l 87 791 z"},"V":{"x_min":0,"x_max":523,"ha":523,"o":"m 529 791 l 425 0 l 113 0 l -6 791 l 211 791 q 249 464 265 238 q 281 466 298 644 l 312 791 z"},"\"":{"x_min":0,"x_max":370,"ha":370,"o":"m 43 536 l 18 669 l 18 791 l 167 791 l 167 669 l 145 536 z m 229 536 l 203 669 l 203 791 l 352 791 l 352 669 l 329 536 z"},"7":{"x_min":0,"x_max":392,"ha":392,"o":"m 383 791 l 383 618 l 257 0 l 61 0 l 201 648 l 6 648 l 6 791 z"},"S":{"x_min":0,"x_max":517,"ha":517,"o":"m 477 551 l 286 551 l 286 610 q 286 651 278 662 q 271 673 254 673 q 235 673 226 658 q 216 643 216 612 q 216 573 227 553 q 237 533 285 504 q 422 423 458 371 q 494 318 494 202 q 494 118 474 78 q 454 38 397 10 q 341 -17 266 -17 q 183 -17 125 15 q 66 46 48 94 q 30 143 30 231 l 30 283 l 221 283 l 221 187 q 221 143 229 130 q 237 117 258 117 q 278 117 288 133 q 298 149 298 181 q 298 251 279 272 q 260 294 183 344 q 106 395 82 418 q 57 441 40 481 q 24 522 24 585 q 24 676 47 718 q 70 760 122 783 q 174 807 247 807 q 327 807 384 781 q 440 755 458 716 q 477 677 477 583 z"},"}":{"x_min":0,"x_max":370,"ha":370,"o":"m 352 263 q 298 262 271 231 q 245 200 245 92 q 245 9 239 -31 q 233 -70 209 -97 q 186 -124 149 -136 q 112 -148 44 -148 l 18 -148 l 18 -31 q 86 -31 101 -17 q 117 -2 118 41 q 121 166 127 201 q 133 237 151 268 q 169 298 209 321 q 167 349 150 375 q 134 401 128 432 q 122 463 119 548 q 116 632 112 644 q 108 656 94 665 q 79 674 18 674 l 18 791 l 43 791 q 122 791 164 773 q 207 755 226 714 q 245 674 245 583 q 245 480 252 453 q 260 426 279 404 q 298 382 352 380 z"},"Z":{"x_min":0,"x_max":397,"ha":397,"o":"m 385 791 l 385 632 l 231 158 l 385 158 l 385 0 l 6 0 l 6 115 l 164 632 l 24 632 l 24 791 z"},"x":{"x_min":0,"x_max":434,"ha":434,"o":"m 426 648 l 347 338 l 442 0 l 250 0 q 222 128 208 220 q 188 105 165 0 l 0 0 l 85 338 l 0 648 l 165 648 q 205 450 208 423 q 236 588 250 648 z"},")":{"x_min":0,"x_max":313,"ha":313,"o":"m 18 791 l 80 791 q 164 791 205 775 q 247 759 259 728 q 272 697 272 597 l 272 193 q 272 93 259 62 q 247 32 206 16 q 166 0 80 0 l 18 0 l 18 103 q 61 103 73 107 q 84 112 89 125 q 94 139 94 193 l 94 598 q 94 656 88 668 q 82 681 70 684 q 58 688 18 688 z"},"&":{"x_min":0,"x_max":576,"ha":576,"o":"m 562 300 l 562 167 l 507 132 l 576 0 l 394 0 l 370 44 q 278 -17 196 -17 q 110 -17 64 41 q 18 98 18 178 q 18 243 45 279 q 72 316 127 339 q 49 395 49 491 q 49 573 104 624 q 160 674 258 674 q 346 674 396 625 q 447 575 447 499 q 447 419 385 357 l 455 231 z m 258 439 q 292 482 292 522 q 292 539 282 553 q 272 567 254 567 q 238 567 230 557 q 222 546 222 524 q 222 478 258 439 z m 303 133 l 239 240 q 202 207 202 168 q 202 140 214 126 q 225 112 248 112 q 271 112 303 133 z"},"_":{"x_min":0,"x_max":552,"ha":552,"o":"m -6 -75 l 558 -75 l 558 -125 l -6 -125 z"},"v":{"x_min":0,"x_max":437,"ha":437,"o":"m 443 648 l 351 0 l 93 0 l -6 648 l 170 648 l 226 175 q 232 227 247 429 q 256 542 267 648 z"},"O":{"x_min":0,"x_max":546,"ha":546,"o":"m 511 328 q 511 208 505 159 q 500 109 470 68 q 440 27 390 5 q 340 -17 273 -17 q 209 -17 159 4 q 108 25 78 66 q 47 108 41 157 q 35 206 35 328 l 35 463 q 35 582 41 632 q 46 681 76 722 q 105 763 156 785 q 206 807 273 807 q 336 807 387 786 q 438 766 468 724 q 499 683 505 634 q 511 585 511 463 z m 305 587 q 305 643 299 658 q 293 673 274 673 q 258 673 249 661 q 241 648 241 587 l 241 218 q 241 149 246 133 q 252 117 272 117 q 293 117 299 136 q 305 154 305 224 z"},"(":{"x_min":0,"x_max":313,"ha":313,"o":"m 295 791 l 295 688 q 255 688 243 684 q 231 681 225 668 q 220 656 220 598 l 220 193 q 220 139 224 125 q 229 112 240 107 q 252 103 295 103 l 295 0 l 233 0 q 147 0 107 16 q 67 32 54 62 q 41 93 41 193 l 41 597 q 41 697 54 728 q 66 759 108 775 q 149 791 233 791 z"},"C":{"x_min":0,"x_max":554,"ha":554,"o":"m 521 446 l 315 446 l 315 583 q 315 644 309 658 q 302 673 280 673 q 254 673 248 655 q 241 637 241 577 l 241 210 q 241 152 248 135 q 254 117 278 117 q 301 117 308 135 q 315 152 315 217 l 315 316 l 521 316 l 521 286 q 521 163 504 112 q 486 61 427 22 q 368 -17 281 -17 q 190 -17 132 16 q 73 49 54 107 q 35 165 35 281 l 35 512 q 35 597 41 640 q 47 683 76 722 q 105 762 156 784 q 208 807 275 807 q 366 807 425 772 q 484 737 502 684 q 521 632 521 521 z"},"W":{"x_min":0,"x_max":814,"ha":814,"o":"m 814 791 l 723 0 l 466 0 q 431 182 404 414 q 392 315 347 0 l 92 0 l 0 791 l 200 791 l 221 515 l 242 249 q 253 455 299 791 l 513 791 q 517 756 535 530 l 558 229 q 575 516 615 791 z"},"A":{"x_min":0,"x_max":508,"ha":508,"o":"m 396 791 l 514 0 l 303 0 l 293 142 l 219 142 l 207 0 l -6 0 l 99 791 z m 287 282 q 271 417 256 614 q 225 387 217 282 z"},"f":{"x_min":0,"x_max":289,"ha":289,"o":"m 287 791 l 287 690 q 226 690 215 685 q 204 679 204 653 l 204 632 l 287 632 l 287 530 l 240 530 l 240 0 l 42 0 l 42 530 l 2 530 l 2 632 l 42 632 q 42 696 47 718 q 51 739 69 756 q 86 773 117 782 q 148 791 214 791 z"},"Q":{"x_min":0,"x_max":546,"ha":546,"o":"m 511 0 l 511 -96 l 356 -96 q 300 -96 277 -87 q 254 -79 246 -62 q 238 -44 238 0 q 168 2 118 37 q 67 71 51 125 q 35 178 35 285 l 35 529 q 35 610 45 652 q 54 694 84 732 q 114 769 161 788 q 208 807 265 807 q 333 807 387 784 q 441 760 468 724 q 495 688 503 649 q 511 610 511 534 l 511 277 q 511 171 500 134 q 490 96 461 74 q 432 52 384 40 q 385 14 395 7 q 404 0 440 0 z m 305 587 q 305 643 299 658 q 293 673 274 673 q 258 673 249 661 q 241 648 241 587 l 241 218 q 241 149 246 133 q 252 117 272 117 q 293 117 299 136 q 305 154 305 224 z"},"w":{"x_min":0,"x_max":669,"ha":669,"o":"m 672 648 l 594 0 l 379 0 q 362 119 339 312 q 331 228 317 141 l 295 0 l 81 0 l -3 648 l 167 648 q 169 623 210 277 q 213 312 254 648 l 417 648 l 458 277 q 467 439 502 648 z"},"-":{"x_min":0,"x_max":294,"ha":294,"o":"m 277 392 l 277 256 l 18 256 l 18 392 z"},"E":{"x_min":0,"x_max":416,"ha":416,"o":"m 41 791 l 384 791 l 384 632 l 247 632 l 247 482 l 375 482 l 375 332 l 247 332 l 247 158 l 397 158 l 397 0 l 41 0 z"},"s":{"x_min":0,"x_max":471,"ha":471,"o":"m 438 441 l 263 441 l 263 476 q 263 521 258 533 q 253 545 232 545 q 216 545 208 534 q 199 523 199 501 q 199 471 203 457 q 208 443 228 427 q 249 410 313 378 q 399 336 426 299 q 453 262 453 191 q 453 112 433 72 q 412 32 364 10 q 316 -12 248 -12 q 173 -12 119 12 q 66 35 46 75 q 26 115 26 196 l 26 228 l 201 228 l 201 187 q 201 134 207 119 q 214 103 233 103 q 254 103 263 114 q 271 124 271 158 q 271 204 260 216 q 249 228 146 285 q 59 334 40 374 q 21 414 21 468 q 21 546 41 583 q 62 620 111 640 q 160 660 225 660 q 289 660 334 643 q 379 627 404 600 q 428 573 433 550 q 438 527 438 479 z"},">":{"x_min":0,"x_max":533,"ha":533,"o":"m 32 649 l 501 454 l 501 354 l 32 158 l 32 287 l 322 404 l 32 520 z"},"l":{"x_min":0,"x_max":274,"ha":274,"o":"m 238 791 l 238 0 l 35 0 l 35 791 z"},"8":{"x_min":0,"x_max":535,"ha":535,"o":"m 412 448 q 455 431 479 396 q 502 361 502 229 q 502 134 483 88 q 465 43 411 14 q 357 -15 267 -15 q 179 -15 128 13 q 77 41 54 86 q 32 132 32 239 q 32 311 43 364 q 54 417 112 448 q 76 466 57 504 q 39 542 39 602 q 39 704 96 755 q 152 806 265 806 q 396 806 445 751 q 495 697 495 597 q 495 533 479 504 q 462 476 412 448 z m 301 618 q 301 658 294 671 q 287 684 267 684 q 247 684 240 670 q 233 656 233 618 l 233 558 q 233 522 241 509 q 249 495 268 495 q 287 495 294 509 q 301 522 301 564 z m 305 290 q 305 335 295 350 q 286 365 266 365 q 247 365 238 350 q 229 336 229 290 l 229 187 q 229 136 239 121 q 249 106 269 106 q 290 106 297 121 q 305 136 305 188 z"},"\\":{"x_min":0,"x_max":396,"ha":396,"o":"m 6 806 l 154 806 l 390 -15 l 241 -15 z"},"e":{"x_min":0,"x_max":511,"ha":511,"o":"m 482 312 l 227 312 l 227 172 q 227 128 233 116 q 239 103 257 103 q 280 103 287 120 q 295 137 295 185 l 295 271 l 482 271 l 482 223 q 482 163 474 130 q 467 98 439 62 q 411 25 368 7 q 326 -12 261 -12 q 199 -12 151 6 q 103 24 76 56 q 50 87 40 125 q 29 163 29 235 l 29 424 q 29 509 52 558 q 75 607 127 634 q 180 660 248 660 q 331 660 385 628 q 438 597 460 545 q 482 493 482 398 z m 284 418 l 284 465 q 284 516 279 530 q 273 545 257 545 q 236 545 231 532 q 227 520 227 465 l 227 418 z"},"b":{"x_min":0,"x_max":520,"ha":520,"o":"m 232 791 l 232 604 q 257 632 287 646 q 317 660 352 660 q 393 660 422 647 q 452 634 468 611 q 483 588 487 566 q 490 544 490 473 l 490 181 q 490 109 480 74 q 471 40 436 14 q 400 -12 352 -12 q 317 -12 287 3 q 257 19 232 49 l 220 0 l 35 0 l 35 791 z m 292 464 q 292 514 286 530 q 280 545 261 545 q 243 545 238 531 q 232 518 232 464 l 232 185 q 232 132 239 118 q 245 103 263 103 q 281 103 287 118 q 292 133 292 191 z"},"%":{"x_min":0,"x_max":693,"ha":693,"o":"m 539 806 l 229 -15 l 154 -15 l 464 806 z m 309 656 l 309 520 q 309 467 299 440 q 289 414 256 394 q 223 374 168 374 q 106 374 73 393 q 41 412 29 438 q 18 464 18 514 l 18 656 q 18 714 30 742 q 42 771 76 788 q 110 806 160 806 q 216 806 250 786 q 285 767 297 740 q 309 712 309 656 z m 184 690 q 184 722 180 729 q 177 736 163 736 q 150 736 146 729 q 142 721 142 690 l 142 491 q 142 457 146 450 q 149 443 164 443 q 176 443 180 451 q 184 459 184 488 z m 675 274 l 675 138 q 675 85 665 58 q 655 31 622 11 q 589 -8 535 -8 q 473 -8 440 11 q 407 30 396 56 q 384 83 384 131 l 384 274 q 384 332 396 360 q 408 388 442 406 q 477 424 527 424 q 583 424 618 404 q 652 385 664 357 q 675 330 675 274 z m 550 308 q 550 339 547 347 q 544 354 530 354 q 517 354 513 347 q 509 339 509 308 l 509 109 q 509 75 513 68 q 516 62 530 62 q 543 62 547 69 q 550 77 550 106 z"},"m":{"x_min":0,"x_max":771,"ha":771,"o":"m 230 648 l 227 586 q 250 623 281 641 q 313 660 354 660 q 433 660 478 586 q 503 623 534 641 q 565 660 604 660 q 654 660 687 635 q 720 611 729 575 q 738 540 738 460 l 738 0 l 547 0 l 547 422 q 547 505 541 525 q 536 545 515 545 q 494 545 488 525 q 482 506 482 422 l 482 0 l 291 0 l 291 412 q 291 507 286 526 q 281 545 260 545 q 247 545 238 535 q 229 525 228 510 q 227 496 227 449 l 227 0 l 35 0 l 35 648 z"},"#":{"x_min":0,"x_max":626,"ha":626,"o":"m 18 518 l 168 518 l 209 705 l 301 705 l 260 518 l 434 518 l 474 705 l 566 705 l 526 518 l 609 518 l 609 425 l 508 425 l 478 278 l 609 278 l 609 186 l 460 186 l 420 0 l 327 0 l 368 186 l 192 186 l 154 0 l 61 0 l 101 186 l 18 186 l 18 278 l 120 278 l 150 425 l 18 425 z m 243 425 l 212 278 l 386 278 l 416 425 z"},",":{"x_min":0,"x_max":168,"ha":168,"o":"m 150 155 l 150 84 q 150 28 137 -7 q 124 -43 91 -68 q 59 -93 18 -101 l 18 -44 q 47 -28 51 0 l 18 0 l 18 155 z"},"n":{"x_min":0,"x_max":523,"ha":523,"o":"m 236 648 l 232 588 q 254 624 285 642 q 316 660 356 660 q 407 660 439 636 q 472 612 481 575 q 490 539 490 454 l 490 0 l 293 0 l 293 449 q 293 516 289 530 q 284 545 264 545 q 243 545 238 528 q 232 511 232 438 l 232 0 l 35 0 l 35 648 z"},"h":{"x_min":0,"x_max":524,"ha":524,"o":"m 232 791 l 232 613 q 258 636 287 648 q 317 660 351 660 q 402 660 439 633 q 475 607 483 573 q 491 538 491 447 l 491 0 l 294 0 l 294 456 q 294 513 288 529 q 283 545 263 545 q 245 545 239 528 q 232 512 232 462 l 232 0 l 35 0 l 35 791 z"},"z":{"x_min":0,"x_max":351,"ha":351,"o":"m 342 648 l 342 504 l 197 130 l 342 130 l 342 0 l 6 0 l 6 136 l 155 518 l 21 518 l 21 648 z"},"B":{"x_min":0,"x_max":552,"ha":552,"o":"m 41 791 l 246 791 q 343 791 393 775 q 443 760 474 714 q 505 668 505 565 q 505 496 483 469 q 461 441 397 427 q 469 411 494 373 q 520 336 520 259 l 520 186 q 520 105 501 67 q 483 28 443 14 q 403 0 279 0 l 41 0 z m 247 655 l 247 479 q 260 480 267 480 q 297 480 306 495 q 314 510 314 580 q 314 617 307 632 q 300 647 289 651 q 278 655 247 655 z m 247 356 l 247 135 q 290 137 302 149 q 314 161 314 209 l 314 283 q 314 333 303 344 q 292 355 247 356 z"},"K":{"x_min":0,"x_max":537,"ha":537,"o":"m 531 791 l 413 434 l 542 0 l 330 0 l 247 339 l 247 0 l 41 0 l 41 791 l 247 791 l 247 483 l 338 791 z"},"R":{"x_min":0,"x_max":539,"ha":539,"o":"m 41 791 l 187 791 q 332 791 384 779 q 435 768 468 722 q 500 676 500 575 q 500 482 477 451 q 454 419 387 413 q 448 397 469 372 q 490 347 495 325 q 500 304 500 208 l 500 0 l 309 0 l 309 263 q 309 326 299 341 q 289 356 247 356 l 247 0 l 41 0 z m 247 655 l 247 479 q 281 479 295 489 q 309 499 309 551 l 309 594 q 309 632 296 644 q 282 655 247 655 z"},"T":{"x_min":0,"x_max":461,"ha":461,"o":"m 455 791 l 455 632 l 333 632 l 333 0 l 127 0 l 127 632 l 6 632 l 6 791 z"},"P":{"x_min":0,"x_max":502,"ha":502,"o":"m 41 791 l 248 791 q 332 791 377 777 q 422 764 445 739 q 468 714 476 679 q 484 644 484 569 l 484 500 q 484 425 468 390 q 453 355 411 337 q 369 318 302 318 l 247 318 l 247 0 l 41 0 z m 247 655 l 247 454 q 255 454 262 454 q 290 454 301 468 q 312 481 312 525 l 312 590 q 312 631 299 643 q 287 655 247 655 z"},"|":{"x_min":0,"x_max":271,"ha":271,"o":"m 83 791 l 188 791 l 188 -129 l 83 -129 z"},"t":{"x_min":0,"x_max":305,"ha":305,"o":"m 243 734 l 243 632 l 296 632 l 296 530 l 243 530 l 243 183 q 243 119 250 112 q 256 104 305 104 l 305 0 l 225 0 q 158 0 129 6 q 100 11 78 31 q 56 52 51 78 q 45 104 45 201 l 45 530 l 3 530 l 3 632 l 45 632 l 45 734 z"},"M":{"x_min":0,"x_max":717,"ha":717,"o":"m 675 791 l 675 0 l 496 0 l 496 534 l 424 0 l 296 0 l 221 521 l 221 0 l 41 0 l 41 791 l 307 791 q 319 719 332 623 l 360 421 l 407 791 z"},"g":{"x_min":0,"x_max":519,"ha":519,"o":"m 483 648 l 483 149 q 483 48 479 18 q 474 -11 446 -44 q 417 -77 367 -94 q 316 -112 240 -112 q 146 -112 88 -80 q 31 -48 29 46 l 221 46 q 221 3 252 3 q 274 3 282 16 q 289 29 289 71 l 289 120 q 264 97 236 85 q 208 74 177 74 q 124 74 89 95 q 55 117 42 152 q 29 187 29 251 l 29 486 q 29 579 62 619 q 96 660 164 660 q 201 660 231 645 q 262 629 286 599 l 300 648 z m 286 476 q 286 521 281 533 q 275 545 258 545 q 241 545 234 531 q 227 517 227 476 l 227 258 q 227 215 232 202 q 237 189 254 189 q 274 189 280 205 q 286 220 286 275 z"},"j":{"x_min":0,"x_max":280,"ha":280,"o":"m 244 791 l 244 688 l 41 688 l 41 791 z m 244 648 l 244 135 q 244 45 240 13 q 237 -19 218 -43 q 199 -67 168 -79 q 136 -91 73 -91 l -3 -91 l -3 13 q 32 13 37 21 q 41 28 41 118 l 41 648 z"},"i":{"x_min":0,"x_max":274,"ha":274,"o":"m 238 791 l 238 688 l 35 688 l 35 791 z m 238 648 l 238 0 l 35 0 l 35 648 z"},"y":{"x_min":0,"x_max":448,"ha":448,"o":"m 448 648 l 392 179 q 378 68 369 27 q 360 -13 339 -40 q 318 -66 281 -78 q 244 -91 162 -91 l 42 -91 l 42 13 q 88 13 101 17 q 114 22 114 38 q 114 46 102 106 l -6 648 l 173 648 l 238 211 l 269 648 z"},"@":{"x_min":0,"x_max":775,"ha":775,"o":"m 583 639 l 521 252 q 519 239 519 235 q 519 216 537 216 q 566 216 600 244 q 635 272 660 327 q 686 382 686 456 q 686 581 611 657 q 536 734 415 734 q 273 734 182 637 q 90 540 90 377 q 90 220 179 128 q 269 36 408 36 q 476 36 538 59 q 599 82 654 127 l 757 127 q 693 46 599 5 q 505 -37 408 -37 q 242 -37 130 76 q 18 188 18 373 q 18 555 122 681 q 227 807 413 807 q 523 807 594 764 q 664 722 711 645 q 758 569 758 456 q 758 306 675 220 q 591 134 507 134 q 444 134 431 190 q 397 158 373 146 q 349 133 315 133 q 243 133 199 190 q 155 247 155 341 q 155 463 216 558 q 277 653 365 653 q 400 653 429 636 q 457 618 478 583 l 486 639 z m 256 313 q 256 268 276 236 q 295 204 328 204 q 360 204 384 229 q 408 254 429 331 q 449 409 449 479 q 449 523 431 550 q 412 577 380 577 q 321 577 289 493 q 256 410 256 313 z"},".":{"x_min":0,"x_max":185,"ha":185,"o":"m 167 161 l 167 0 l 18 0 l 18 161 z"},"p":{"x_min":0,"x_max":519,"ha":519,"o":"m 236 648 l 232 591 q 259 625 291 643 q 322 660 360 660 q 406 660 439 635 q 473 610 481 578 q 489 546 489 469 l 489 196 q 489 107 479 70 q 468 33 436 10 q 403 -12 357 -12 q 321 -12 290 5 q 258 22 232 56 l 232 -92 l 35 -92 l 35 648 z m 292 459 q 292 520 288 532 q 283 545 263 545 q 244 545 238 530 q 232 516 232 459 l 232 191 q 232 132 238 118 q 244 103 264 103 q 283 103 287 116 q 292 130 292 182 z"},"X":{"x_min":0,"x_max":482,"ha":482,"o":"m 458 791 l 386 441 l 494 0 l 304 0 q 270 118 241 288 q 233 213 220 129 l 200 0 l 0 0 l 74 441 l 0 791 l 199 791 q 204 758 220 682 q 233 624 241 575 l 285 791 z"},"*":{"x_min":0,"x_max":281,"ha":281,"o":"m 172 791 l 172 712 l 244 737 l 266 679 l 194 649 l 239 584 l 190 548 l 141 613 l 93 548 l 42 584 l 87 651 l 15 679 l 36 737 l 110 712 l 110 791 z"},"Y":{"x_min":0,"x_max":473,"ha":473,"o":"m 479 791 l 329 286 l 329 0 l 139 0 l 139 286 l -6 791 l 183 791 q 228 560 233 479 q 250 606 290 791 z"},"c":{"x_min":0,"x_max":495,"ha":495,"o":"m 471 403 l 285 403 l 285 478 q 285 517 279 531 q 272 545 255 545 q 238 545 232 533 q 227 521 227 478 l 227 172 q 227 138 235 120 q 244 103 261 103 q 281 103 288 121 q 295 139 295 189 l 295 267 l 471 267 q 471 189 466 150 q 460 111 433 71 q 405 30 361 9 q 316 -12 251 -12 q 167 -12 119 17 q 70 45 50 97 q 29 148 29 243 l 29 427 q 29 510 46 552 q 62 594 117 627 q 171 660 249 660 q 326 660 380 627 q 435 594 453 544 q 471 495 471 403 z"},"!":{"x_min":0,"x_max":270,"ha":270,"o":"m 252 791 l 220 195 l 67 195 l 35 791 z m 236 158 l 236 0 l 51 0 l 51 158 z"},"/":{"x_min":0,"x_max":396,"ha":396,"o":"m 390 806 l 155 -15 l 6 -15 l 242 806 z"},"[":{"x_min":0,"x_max":282,"ha":282,"o":"m 264 791 l 264 669 l 220 669 l 220 122 l 264 122 l 264 0 l 41 0 l 41 791 z"},"6":{"x_min":0,"x_max":542,"ha":542,"o":"m 509 581 l 312 581 q 312 636 310 650 q 309 665 299 674 q 288 684 270 684 q 255 684 245 675 q 235 666 234 651 q 232 636 232 592 l 232 466 q 248 498 277 513 q 306 529 349 529 q 403 529 445 500 q 486 471 498 430 q 509 389 509 319 l 509 256 q 509 173 502 132 q 496 92 469 57 q 441 23 393 4 q 345 -15 281 -15 q 201 -15 150 7 q 100 29 72 70 q 44 111 40 157 q 35 202 35 333 l 35 442 q 35 583 39 631 q 43 679 73 721 q 103 764 155 785 q 206 806 273 806 q 356 806 410 779 q 463 752 486 704 q 509 655 509 581 z m 312 334 q 312 376 302 392 q 293 407 272 407 q 251 407 242 392 q 232 377 232 334 l 232 191 q 232 139 241 123 q 250 106 271 106 q 284 106 298 119 q 312 131 312 186 z"},"r":{"x_min":0,"x_max":358,"ha":358,"o":"m 232 648 l 225 563 q 268 654 349 660 l 349 432 q 295 432 270 417 q 244 402 238 376 q 232 350 232 256 l 232 0 l 35 0 l 35 648 z"},"2":{"x_min":0,"x_max":502,"ha":502,"o":"m 460 135 l 460 0 l 26 0 l 26 113 q 219 428 256 503 q 292 578 292 620 q 292 652 281 668 q 270 684 248 684 q 225 684 214 667 q 203 649 203 597 l 203 521 l 26 521 l 26 550 q 26 617 33 655 q 40 693 67 730 q 94 768 137 787 q 180 806 240 806 q 357 806 418 747 q 478 689 478 600 q 478 532 444 456 q 410 380 244 135 z"},"{":{"x_min":0,"x_max":370,"ha":370,"o":"m 18 263 l 18 380 q 71 380 98 411 q 125 442 125 551 q 125 633 131 673 q 137 713 160 740 q 184 767 221 779 q 258 791 326 791 l 352 791 l 352 674 q 281 674 267 659 q 253 645 252 602 q 249 485 244 450 q 240 415 223 383 q 206 351 160 321 q 204 295 223 258 q 243 222 247 153 l 254 11 q 258 -10 275 -20 q 292 -31 351 -31 l 351 -148 l 326 -148 q 248 -148 205 -130 q 163 -112 144 -72 q 125 -31 125 59 q 125 159 118 187 q 111 214 91 238 q 72 261 18 263 z"},"9":{"x_min":0,"x_max":542,"ha":542,"o":"m 35 210 l 232 210 q 232 155 234 140 q 235 126 246 116 q 256 106 274 106 q 290 106 299 116 q 309 125 310 140 q 312 154 312 199 l 312 325 q 297 293 268 277 q 238 261 195 261 q 141 261 99 291 q 58 320 46 361 q 35 402 35 472 l 35 535 q 35 618 42 658 q 48 699 76 733 q 103 768 151 787 q 200 806 264 806 q 343 806 394 784 q 444 762 472 720 q 500 679 504 634 q 509 588 509 458 l 509 348 q 509 207 505 159 q 501 112 471 69 q 441 27 390 6 q 338 -16 271 -16 q 188 -16 135 11 q 82 38 58 87 q 35 136 35 210 z m 232 457 q 232 407 245 395 q 258 383 272 383 q 292 383 302 398 q 312 413 312 457 l 312 600 q 312 652 302 668 q 293 684 272 684 q 260 684 246 672 q 232 659 232 604 z"}," ":{"x_min":0,"x_max":176,"ha":176,"o":""},"I":{"x_min":0,"x_max":288,"ha":288,"o":"m 247 791 l 247 0 l 41 0 l 41 791 z"},"H":{"x_min":0,"x_max":555,"ha":555,"o":"m 514 791 l 514 0 l 308 0 l 308 332 l 247 332 l 247 0 l 41 0 l 41 791 l 247 791 l 247 508 l 308 508 l 308 791 z"},"4":{"x_min":0,"x_max":500,"ha":500,"o":"m 438 791 l 438 274 l 494 274 l 494 139 l 438 139 l 438 0 l 240 0 l 240 139 l 6 139 l 6 274 l 176 791 z m 240 274 l 240 610 l 153 274 z"},"~":{"x_min":0,"x_max":525,"ha":525,"o":"m 497 384 q 420 320 358 320 q 316 320 233 360 q 186 383 164 383 q 111 383 28 304 l 28 439 q 100 502 169 502 q 210 502 282 468 q 340 440 365 440 q 387 440 413 453 q 438 466 497 519 z"},"D":{"x_min":0,"x_max":553,"ha":553,"o":"m 41 791 l 195 791 q 344 791 396 777 q 449 763 476 732 q 503 701 510 662 q 517 624 517 512 l 517 235 q 517 128 507 93 q 497 57 472 36 q 447 16 411 8 q 374 0 300 0 l 41 0 z m 247 655 l 247 135 q 291 135 301 153 q 312 171 312 250 l 312 557 q 312 611 308 626 q 305 641 292 648 q 280 655 247 655 z"},"^":{"x_min":0,"x_max":483,"ha":483,"o":"m 6 400 l 189 791 l 298 791 l 477 400 l 338 400 l 242 639 l 146 400 z"},"0":{"x_min":0,"x_max":536,"ha":536,"o":"m 500 523 l 500 259 q 500 169 491 128 q 481 87 450 52 q 419 16 376 0 q 333 -15 279 -15 q 208 -15 161 1 q 114 18 86 52 q 59 87 47 125 q 35 164 35 247 l 35 523 q 35 632 54 686 q 73 740 129 773 q 185 806 264 806 q 329 806 380 783 q 432 760 457 728 q 482 695 491 654 q 500 613 500 523 z m 303 589 q 303 652 297 668 q 291 684 269 684 q 247 684 240 667 q 232 650 232 589 l 232 204 q 232 135 239 121 q 246 106 268 106 q 290 106 296 123 q 303 140 303 198 z"},"F":{"x_min":0,"x_max":398,"ha":398,"o":"m 41 791 l 389 791 l 389 632 l 247 632 l 247 482 l 374 482 l 374 332 l 247 332 l 247 0 l 41 0 z"},"`":{"x_min":0,"x_max":333,"ha":333,"o":"m 0 865 l 174 865 l 260 733 l 161 733 z"},"k":{"x_min":0,"x_max":478,"ha":478,"o":"m 460 648 l 380 390 l 484 0 l 294 0 l 232 282 l 232 0 l 35 0 l 35 791 l 232 791 l 232 458 l 294 648 z"},"u":{"x_min":0,"x_max":522,"ha":522,"o":"m 487 648 l 487 0 l 286 0 l 290 54 q 269 21 239 5 q 209 -12 170 -12 q 125 -12 96 4 q 67 20 53 45 q 39 71 36 99 q 32 127 32 211 l 32 648 l 229 648 l 229 207 q 229 131 234 117 q 239 103 259 103 q 281 103 285 118 q 290 132 290 212 l 290 648 z"},"]":{"x_min":0,"x_max":282,"ha":282,"o":"m 18 0 l 18 122 l 62 122 l 62 669 l 18 669 l 18 791 l 241 791 l 241 0 z"},"U":{"x_min":0,"x_max":547,"ha":547,"o":"m 508 791 l 508 262 q 508 172 502 136 q 497 100 468 61 q 439 23 392 3 q 345 -17 281 -17 q 210 -17 156 7 q 102 30 75 68 q 48 105 43 147 q 38 189 38 323 l 38 791 l 244 791 l 244 198 q 244 146 249 132 q 255 117 272 117 q 292 117 297 133 q 303 149 303 208 l 303 791 z"},"o":{"x_min":0,"x_max":511,"ha":511,"o":"m 481 420 l 481 262 q 481 174 473 134 q 464 93 435 57 q 406 22 361 5 q 316 -12 257 -12 q 192 -12 146 3 q 101 17 76 46 q 51 75 40 116 q 29 158 29 240 l 29 406 q 29 497 49 547 q 68 598 119 629 q 170 660 249 660 q 315 660 363 640 q 411 620 437 588 q 462 557 472 523 q 481 489 481 420 z m 284 469 q 284 519 279 532 q 273 545 256 545 q 238 545 232 532 q 227 519 227 469 l 227 177 q 227 131 232 117 q 238 103 255 103 q 273 103 279 116 q 284 128 284 170 z"},"N":{"x_min":0,"x_max":542,"ha":542,"o":"m 500 791 l 500 0 l 320 0 l 213 359 l 213 0 l 41 0 l 41 791 l 213 791 l 328 435 l 328 791 z"},"+":{"x_min":0,"x_max":533,"ha":533,"o":"m 31 454 l 207 454 l 207 630 l 326 630 l 326 454 l 502 454 l 502 335 l 326 335 l 326 160 l 207 160 l 207 335 l 31 335 z"},"G":{"x_min":0,"x_max":551,"ha":551,"o":"m 513 500 l 307 500 l 307 571 q 307 639 301 656 q 295 673 273 673 q 254 673 248 659 q 241 644 241 583 l 241 204 q 241 151 248 134 q 254 117 275 117 q 297 117 305 136 q 313 155 313 210 l 313 304 l 272 304 l 272 424 l 513 424 l 513 0 l 383 0 l 364 57 q 343 20 311 2 q 279 -17 236 -17 q 184 -17 139 9 q 94 34 70 71 q 47 108 41 149 q 35 189 35 271 l 35 506 q 35 619 47 670 q 60 722 117 764 q 175 807 267 807 q 357 807 417 770 q 477 733 495 682 q 513 631 513 534 z"},"q":{"x_min":0,"x_max":518,"ha":518,"o":"m 482 648 l 482 -92 l 285 -92 l 285 52 q 256 10 232 -1 q 208 -12 172 -12 q 121 -12 87 13 q 53 37 41 76 q 29 115 29 195 l 29 480 q 29 546 38 579 q 47 611 80 635 q 114 660 160 660 q 197 660 228 643 q 259 626 285 593 l 289 648 z m 285 472 q 285 515 279 530 q 272 545 255 545 q 238 545 232 532 q 227 519 227 472 l 227 183 q 227 131 232 117 q 238 103 256 103 q 273 103 279 117 q 285 132 285 180 z"},"d":{"x_min":0,"x_max":520,"ha":520,"o":"m 484 791 l 484 0 l 287 0 l 287 47 q 258 18 227 3 q 196 -12 162 -12 q 116 -12 82 12 q 48 37 39 68 q 29 100 29 172 l 29 475 q 29 550 39 581 q 48 612 83 636 q 117 660 164 660 q 201 660 231 646 q 262 633 287 607 l 287 791 z m 287 485 q 287 521 281 533 q 274 545 256 545 q 239 545 233 534 q 227 523 227 485 l 227 167 q 227 128 232 115 q 238 103 255 103 q 274 103 280 117 q 287 131 287 185 z"},"1":{"x_min":0,"x_max":381,"ha":381,"o":"m 339 791 l 339 0 l 142 0 l 142 424 q 142 516 138 534 q 133 553 114 562 q 94 572 25 572 l 6 572 l 6 664 q 149 695 223 791 z"},"5":{"x_min":0,"x_max":537,"ha":537,"o":"m 466 791 l 466 664 l 221 664 l 221 530 q 267 584 339 584 q 421 584 463 538 q 504 493 504 363 l 504 250 q 504 166 496 127 q 488 87 462 54 q 436 21 388 3 q 341 -15 273 -15 q 197 -15 139 11 q 81 38 57 91 q 32 144 32 254 l 32 297 l 229 297 l 229 248 q 229 171 235 139 q 240 106 272 106 q 287 106 296 116 q 305 125 305 136 q 306 146 307 229 l 307 386 q 307 430 298 446 q 289 462 267 462 q 253 462 244 454 q 235 446 232 436 q 229 427 229 392 l 34 392 l 42 791 z"}}}
